<svg width="401" height="339" viewBox="0 0 401 339" fill="none" xmlns="http://www.w3.org/2000/svg">
<path d="M50.5611 148.267C36.655 172.233 21.2336 195.323 7.65657 219.476C2.34945 228.917 8.3017 220.714 9.21074 219.382C13.4965 213.104 17.2601 206.382 20.9376 199.743C33.834 176.461 46.0305 152.222 52.021 126.132C58.8792 96.2628 62.1244 62.6985 53.4339 32.8347C53.086 31.639 45.904 9.40899 41.3302 18.1407C35.3785 29.5032 38.2272 48.4232 38.9283 60.3858C40.8144 92.5665 44.8242 124.725 48.065 156.791C50.609 181.964 51.7902 208.455 58.6616 232.946C58.8685 233.683 64.7312 252.247 66.6208 247.169C70.5863 236.512 66.5682 221.463 64.9253 210.716C63.4015 200.748 62.0543 189.995 58.6616 180.434C57.168 176.225 57.4528 185.746 57.4842 186.132C58.3771 197.145 60.4217 208.88 63.8892 219.382C66.1554 226.245 71.7955 239.47 80.5141 240.104C88.2165 240.664 91.8331 227.283 92.712 221.878C94.8702 208.606 94.414 192.803 91.1107 179.727C90.5105 177.351 87.6254 168.052 83.6225 168.707C77.9891 169.629 80.2393 183.258 80.7967 186.226C82.5604 195.619 84.9932 208.445 92.6649 215.049C99.0348 220.533 104.966 217.991 108.207 210.811C114.472 196.928 114.131 180.558 112.257 165.787C111.321 158.415 109.772 146.583 104.627 140.543C100.441 135.628 100.891 152.914 100.954 153.636C101.821 163.679 104.793 175.293 110.279 183.872C113.662 189.162 121.143 195.439 127.045 189.712C135.878 181.141 136.695 164.366 137.124 153.071C137.644 139.359 136.462 122.341 130.059 109.837C127.108 104.072 124.094 105.82 123.466 111.438C122.653 118.7 125.245 172.965 137.218 170.12C141.363 169.135 144.552 161.796 146.072 158.817C151.019 149.12 154.651 138.71 157.752 128.298C166.576 98.6631 171.178 68.0599 168.678 37.1204C167.878 27.2252 166.3 14.889 160.342 6.46087C153.162 -3.69571 153.843 32.5097 153.89 33.6353C155.439 71.2338 161.821 109.019 168.113 146.054C174.049 180.997 179.722 217.855 193.686 250.701C195.941 256.007 199.211 264.649 205.79 266.384C209.811 267.444 214.88 265.216 216.904 261.674C222.687 251.554 215.321 237.616 208.097 230.591C195.257 218.104 177.403 215.601 160.907 222.067C135.686 231.952 112.892 253.16 94.1249 272.13C81.7234 284.665 66.7765 301.269 61.817 318.708C58.7419 329.52 67.0269 337.009 77.5 332.884C96.8442 325.263 113.024 306.536 124.219 289.744C136.967 270.621 146.879 249.554 155.35 228.236C155.703 227.347 161.642 208.858 164.204 213.212C166.756 217.551 167.692 225.487 174.188 225.693C178.984 225.845 183.027 221.707 185.915 218.44C192.643 210.831 198.019 201.756 202.728 192.82C218.477 162.934 227.396 128.697 229.573 95.0485C230.917 74.2803 230.123 50.7169 222.838 30.9037C217.6 16.6564 208.881 28.6063 206.261 37.403C199.351 60.5992 200.364 87.4957 200.797 111.438C201.152 131.048 199.89 157.832 211.347 175.018C226.357 197.532 243.223 158.011 239.228 155.614C238.009 154.883 238.2 168.937 238.286 169.649C239.17 176.986 242.179 185.302 249.966 187.828C260.025 191.09 266.48 179.455 269.275 171.815C275.84 153.872 276.807 131.972 266.167 115.3C250.764 91.1646 217.973 82.2281 191.001 83.6513C151.701 85.7251 115.504 103.478 86.6366 129.617C55.2694 158.019 28.7539 198.303 24.0931 241.235C22.1773 258.881 24.6128 277.149 35.8671 291.439C47.3126 305.972 64.951 312.933 82.8689 315.27C141.827 322.957 200.506 288.856 248.553 259.414C281.478 239.238 312.266 216.153 340.861 190.23C358.099 174.603 380.359 153.482 396 136.5" stroke="url(#paint0_linear)" stroke-width="9" stroke-linecap="round" stroke-linejoin="round"/>
<defs>
<linearGradient id="paint0_linear" x1="-45" y1="192.5" x2="396" y2="185.5" gradientUnits="userSpaceOnUse">
<stop stop-color="#8A2387"/>
<stop offset="0.5" stop-color="#E94057"/>
<stop offset="1" stop-color="#F27121"/>
</linearGradient>
</defs>
</svg>
