<svg width="67" height="66" viewBox="0 0 67 66" fill="none" xmlns="http://www.w3.org/2000/svg">
<path d="M62.5058 16.6844C59.5101 11.5517 55.4467 7.48819 50.3145 4.49285C45.1815 1.49736 39.5778 0 33.4995 0C27.4219 0 21.8163 1.49782 16.6844 4.49285C11.5517 7.48804 7.48849 11.5517 4.49285 16.6844C1.49767 21.8169 0 27.4217 0 33.4985C0 40.7982 2.1297 47.3623 6.39018 53.1924C10.6502 59.0229 16.1535 63.0574 22.8997 65.2964C23.6849 65.4421 24.2663 65.3396 24.6442 64.9914C25.0224 64.6428 25.2112 64.2062 25.2112 63.6834C25.2112 63.5961 25.2037 62.8113 25.1892 61.328C25.1742 59.8447 25.1672 58.5507 25.1672 57.4466L24.1639 57.6201C23.5242 57.7373 22.7173 57.787 21.743 57.7729C20.7692 57.7593 19.7583 57.6573 18.7116 57.4675C17.6645 57.2794 16.6905 56.8433 15.789 56.1599C14.8879 55.4765 14.2482 54.582 13.8701 53.4777L13.4339 52.474C13.1432 51.8058 12.6855 51.0634 12.0602 50.2497C11.4349 49.4353 10.8025 48.8831 10.1628 48.5924L9.85745 48.3738C9.65395 48.2285 9.46512 48.0533 9.29049 47.8499C9.11602 47.6466 8.9854 47.4431 8.89816 47.2393C8.81077 47.0353 8.88319 46.868 9.11617 46.7368C9.34916 46.6056 9.77021 46.5418 10.3812 46.5418L11.2532 46.6722C11.8348 46.7887 12.5543 47.1369 13.4124 47.7188C14.2701 48.3003 14.9752 49.0562 15.5277 49.9863C16.1969 51.1789 17.0031 52.0876 17.9486 52.713C18.8934 53.3383 19.846 53.6504 20.8054 53.6504C21.7649 53.6504 22.5935 53.5777 23.2917 53.433C23.9891 53.2875 24.6435 53.0689 25.2544 52.7783C25.5161 50.8292 26.2287 49.3318 27.3915 48.2852C25.7341 48.111 24.2441 47.8487 22.9206 47.4999C21.5979 47.1507 20.231 46.5839 18.8208 45.798C17.41 45.0132 16.2395 44.0386 15.3093 42.876C14.3789 41.7127 13.6153 40.1856 13.0196 38.2959C12.4236 36.4054 12.1256 34.2247 12.1256 31.7531C12.1256 28.2339 13.2744 25.2391 15.5717 22.7672C14.4956 20.1214 14.5972 17.1554 15.8768 13.8695C16.7202 13.6075 17.9708 13.8041 19.6281 14.4582C21.2857 15.1125 22.4994 15.673 23.2703 16.1378C24.0412 16.6024 24.6589 16.9961 25.1243 17.3154C27.8292 16.5596 30.6205 16.1816 33.4992 16.1816C36.3778 16.1816 39.1698 16.5596 41.8748 17.3154L43.5323 16.269C44.6657 15.5708 46.0042 14.931 47.5445 14.3494C49.0857 13.7681 50.2642 13.608 51.0788 13.87C52.3869 17.156 52.5035 20.1219 51.427 22.7677C53.7242 25.2396 54.8735 28.2351 54.8735 31.7535C54.8735 34.2252 54.5744 36.4128 53.9793 38.3177C53.3835 40.223 52.6133 41.7486 51.6686 42.8978C50.7227 44.0469 49.5448 45.0138 48.1347 45.7984C46.7243 46.5837 45.3569 47.1505 44.0342 47.4998C42.7108 47.849 41.2208 48.1115 39.5635 48.2859C41.075 49.594 41.831 51.6588 41.831 54.4794V63.6822C41.831 64.205 42.0128 64.6414 42.3767 64.9902C42.7402 65.3384 43.3141 65.4409 44.0994 65.295C50.8465 63.0564 56.3498 59.0217 60.6097 53.1911C64.8691 47.361 66.9995 40.797 66.9995 33.4973C66.998 27.4212 65.4996 21.8169 62.5058 16.6844Z" fill="#C4C4C4"/>
</svg>
