<svg width="112" height="112" viewBox="0 0 112 112" fill="none" xmlns="http://www.w3.org/2000/svg">
<g filter="url(#filter0_d)">
<path fill-rule="evenodd" clip-rule="evenodd" d="M56 104C82.5097 104 104 82.5097 104 56C104 29.4903 82.5097 8 56 8C29.4903 8 8 29.4903 8 56C8 82.5097 29.4903 104 56 104ZM72.3145 27.3125C77.4467 30.3078 81.5101 34.3714 84.5058 39.5041C87.4996 44.6366 88.998 50.2409 88.9995 56.317C88.9995 63.6166 86.8691 70.1807 82.6097 76.0108C78.3498 81.8413 72.8465 85.876 66.0994 88.1146C65.3141 88.2606 64.7402 88.158 64.3767 87.8099C64.0128 87.4611 63.831 87.0246 63.831 86.5018V77.299C63.831 74.4784 63.075 72.4137 61.5635 71.1056C63.2208 70.9311 64.7108 70.6686 66.0342 70.3194C67.3569 69.9701 68.7243 69.4033 70.1347 68.6181C71.5448 67.8334 72.7227 66.8665 73.6686 65.7175C74.6133 64.5683 75.3835 63.0426 75.9793 61.1374C76.5744 59.2324 76.8735 57.0448 76.8735 54.5732C76.8735 51.0547 75.7242 48.0592 73.427 45.5873C74.5035 42.9415 74.3869 39.9757 73.0788 36.6896C72.2642 36.4276 71.0857 36.5877 69.5445 37.169C68.0042 37.7506 66.6657 38.3905 65.5323 39.0887L63.8748 40.135C61.1698 39.3792 58.3778 39.0013 55.4992 39.0013C52.6205 39.0013 49.8292 39.3792 47.1243 40.135C46.6589 39.8157 46.0412 39.422 45.2703 38.9574C44.4994 38.4927 43.2857 37.9321 41.6281 37.2778C39.9708 36.6238 38.7202 36.4271 37.8768 36.6891C36.5972 39.9751 36.4956 42.9411 37.5717 45.5869C35.2744 48.0588 34.1256 51.0535 34.1256 54.5727C34.1256 57.0443 34.4236 59.2251 35.0196 61.1155C35.6153 63.0052 36.3789 64.5324 37.3093 65.6956C38.2395 66.8582 39.41 67.8328 40.8208 68.6176C42.231 69.4035 43.5979 69.9703 44.9206 70.3195C46.2441 70.6683 47.7341 70.9306 49.3915 71.1048C48.2287 72.1515 47.5161 73.6488 47.2544 75.598C46.6435 75.8885 45.9891 76.1072 45.2917 76.2526C44.5935 76.3973 43.7649 76.47 42.8054 76.47C41.846 76.47 40.8934 76.1579 39.9486 75.5326C39.0031 74.9073 38.1969 73.9986 37.5277 72.806C36.9752 71.8759 36.2701 71.1199 35.4124 70.5385C34.5543 69.9565 33.8348 69.6084 33.2532 69.4918L32.3812 69.3615C31.7702 69.3615 31.3492 69.4252 31.1162 69.5564C30.8832 69.6877 30.8108 69.8549 30.8982 70.0589C30.9854 70.2627 31.116 70.4662 31.2905 70.6696C31.4651 70.8729 31.6539 71.0481 31.8574 71.1934L32.1628 71.412C32.8025 71.7028 33.4349 72.2549 34.0602 73.0694C34.6855 73.8831 35.1432 74.6254 35.4339 75.2936L35.8701 76.2974C36.2482 77.4016 36.8879 78.2962 37.789 78.9795C38.6905 79.6629 39.6645 80.0991 40.7116 80.2871C41.7583 80.4769 42.7692 80.5789 43.743 80.5925C44.7173 80.6066 45.5242 80.5569 46.1639 80.4398L47.1672 80.2662C47.1672 81.3703 47.1742 82.6643 47.1892 84.1477C47.2037 85.631 47.2112 86.4158 47.2112 86.503C47.2112 87.0258 47.0224 87.4624 46.6442 87.8111C46.2663 88.1593 45.6849 88.2618 44.8997 88.116C38.1535 85.8771 32.6502 81.8426 28.3902 76.012C24.1297 70.1819 22 63.6178 22 56.3182C22 50.2413 23.4977 44.6366 26.4929 39.5041C29.4885 34.3714 33.5517 30.3077 38.6844 27.3125C43.8163 24.3175 49.4219 22.8196 55.4995 22.8196C61.5778 22.8196 67.1815 24.317 72.3145 27.3125Z" fill="url(#paint0_linear)"/>
</g>
<defs>
<filter id="filter0_d" x="0" y="0" width="112" height="112" filterUnits="userSpaceOnUse" color-interpolation-filters="sRGB">
<feFlood flood-opacity="0" result="BackgroundImageFix"/>
<feColorMatrix in="SourceAlpha" type="matrix" values="0 0 0 0 0 0 0 0 0 0 0 0 0 0 0 0 0 0 127 0"/>
<feOffset/>
<feGaussianBlur stdDeviation="4"/>
<feColorMatrix type="matrix" values="0 0 0 0 0 0 0 0 0 0 0 0 0 0 0 0 0 0 0.5 0"/>
<feBlend mode="normal" in2="BackgroundImageFix" result="effect1_dropShadow"/>
<feBlend mode="normal" in="SourceGraphic" in2="effect1_dropShadow" result="shape"/>
</filter>
<linearGradient id="paint0_linear" x1="56" y1="8" x2="56" y2="104" gradientUnits="userSpaceOnUse">
<stop stop-color="#8A2387"/>
<stop offset="0.479167" stop-color="#E94057"/>
<stop offset="1" stop-color="#F27121"/>
</linearGradient>
</defs>
</svg>
