<svg width="52" height="66" viewBox="0 0 52 66" fill="none" xmlns="http://www.w3.org/2000/svg">
<path d="M24.3736 1.94319C25.1742 0.945743 26.6925 0.945741 27.4931 1.94319L45.7821 24.7288C46.8328 26.0378 45.9009 27.9807 44.2224 27.9807H7.6443C5.96578 27.9807 5.0339 26.0378 6.08458 24.7288L24.3736 1.94319Z" fill="#C4C4C4"/>
<path fill-rule="evenodd" clip-rule="evenodd" d="M8.98975 32.7578C6.22827 32.7578 3.98975 34.9963 3.98975 37.7578V60.0608C3.98975 62.8223 6.22827 65.0608 8.98975 65.0608H18.9513V47.5134H32.4166V65.0608H42.877C45.6384 65.0608 47.877 62.8223 47.877 60.0608V37.7578C47.877 34.9963 45.6384 32.7578 42.877 32.7578H8.98975Z" fill="#C4C4C4"/>
</svg>
