<svg width="112" height="112" viewBox="0 0 112 112" fill="none" xmlns="http://www.w3.org/2000/svg">
<g filter="url(#filter0_d)">
<path fill-rule="evenodd" clip-rule="evenodd" d="M56 104C82.5097 104 104 82.5097 104 56C104 29.4903 82.5097 8 56 8C29.4903 8 8 29.4903 8 56C8 82.5097 29.4903 104 56 104ZM25 37.1071C25 34.8388 26.8564 33 29.1464 33H46.9757L51.1912 40.9405H82.2198C84.5098 40.9405 86.3662 42.7793 86.3662 45.0476V45.3899H51.6055C46.0726 45.3899 41.0728 48.6584 38.8974 53.6976L29.2155 76.125H29.1464C26.8564 76.125 25 74.2862 25 72.0179V37.1071ZM45.3962 56.2623C47.7197 51.5763 52.5314 48.6071 57.8019 48.6071H88.849C91.8451 48.6071 93.8521 51.658 92.6422 54.3729L81.667 79H34.122L45.3962 56.2623Z" fill="url(#paint0_linear)"/>
</g>
<defs>
<filter id="filter0_d" x="0" y="0" width="112" height="112" filterUnits="userSpaceOnUse" color-interpolation-filters="sRGB">
<feFlood flood-opacity="0" result="BackgroundImageFix"/>
<feColorMatrix in="SourceAlpha" type="matrix" values="0 0 0 0 0 0 0 0 0 0 0 0 0 0 0 0 0 0 127 0"/>
<feOffset/>
<feGaussianBlur stdDeviation="4"/>
<feColorMatrix type="matrix" values="0 0 0 0 0 0 0 0 0 0 0 0 0 0 0 0 0 0 0.5 0"/>
<feBlend mode="normal" in2="BackgroundImageFix" result="effect1_dropShadow"/>
<feBlend mode="normal" in="SourceGraphic" in2="effect1_dropShadow" result="shape"/>
</filter>
<linearGradient id="paint0_linear" x1="56" y1="8" x2="56" y2="104" gradientUnits="userSpaceOnUse">
<stop stop-color="#8A2387"/>
<stop offset="0.479167" stop-color="#E94057"/>
<stop offset="1" stop-color="#F27121"/>
</linearGradient>
</defs>
</svg>
